<?xml version="1.0" standalone="no"?>
<!DOCTYPE svg PUBLIC "-//W3C//DTD SVG 20010904//EN"
 "http://www.w3.org/TR/2001/REC-SVG-20010904/DTD/svg10.dtd">
<svg version="1.0" xmlns="http://www.w3.org/2000/svg"
 width="200.000000pt" height="200.000000pt" viewBox="0 0 200.000000 200.000000"
 preserveAspectRatio="xMidYMid meet">
<metadata>
Created by potrace 1.16, written by Peter Selinger 2001-2019
</metadata>
<g transform="translate(0.000000,200.000000) scale(0.100000,-0.100000)"
fill="#2563eb" stroke="none">
<path d="M620 1440 l0 -340 -220 0 c-211 0 -220 -1 -220 -19 0 -12 11 -25 27
-33 15 -7 38 -29 51 -48 13 -19 43 -45 67 -58 52 -26 69 -49 90 -118 17 -57
37 -79 116 -123 76 -43 97 -41 116 9 18 46 51 60 139 60 47 0 55 -3 85 -37 19
-21 54 -78 78 -126 25 -49 61 -107 82 -129 24 -26 43 -61 53 -97 21 -71 20
-71 91 -114 42 -25 78 -38 119 -43 59 -7 59 -7 51 17 -4 13 -12 59 -17 101
-11 77 -11 77 23 145 27 53 39 69 59 71 36 5 44 17 30 42 -11 21 -11 22 11 15
47 -15 80 -8 137 31 49 34 57 44 57 72 0 34 5 38 35 22 14 -7 32 -5 66 8 45
16 48 20 51 57 2 22 11 63 20 92 14 47 14 54 -1 84 -9 18 -16 39 -16 48 0 9
-9 31 -20 49 -17 27 -20 50 -20 140 l0 108 -52 18 c-29 11 -63 28 -75 39 -27
24 -80 19 -119 -12 -15 -12 -31 -17 -38 -14 -13 9 -118 23 -186 26 -33 2 -46
6 -48 19 -3 14 -13 17 -49 16 -37 -2 -49 2 -64 21 -13 15 -27 22 -46 20 -17
-2 -37 5 -50 16 -22 18 -23 27 -23 162 l0 143 -195 0 -195 0 0 -340z"/>
</g>
</svg>
