<?xml version="1.0" standalone="no"?>
<!DOCTYPE svg PUBLIC "-//W3C//DTD SVG 20010904//EN"
 "http://www.w3.org/TR/2001/REC-SVG-20010904/DTD/svg10.dtd">
<svg version="1.0" xmlns="http://www.w3.org/2000/svg"
 width="939.000000pt" height="266.000000pt" viewBox="0 0 939.000000 266.000000"
 preserveAspectRatio="xMidYMid meet">
<metadata>
Created by potrace 1.16, written by Peter Selinger 2001-2019
</metadata>
<g transform="translate(0.000000,266.000000) scale(0.100000,-0.100000)"
fill="#000000" stroke="none">
<path d="M1008 2022 c-34 -20 -35 -30 -5 -41 25 -10 57 -38 57 -50 0 -4 -15
-5 -34 -3 -41 5 -76 -12 -76 -36 0 -28 21 -42 60 -42 58 0 63 -8 61 -99 -3
-90 9 -121 43 -121 31 0 36 15 36 121 0 98 -3 95 80 101 29 3 35 7 38 29 2 21
-3 29 -26 38 -16 7 -41 9 -57 5 -25 -6 -26 -5 -16 14 6 11 23 22 38 24 22 2
29 9 31 31 3 21 -2 29 -20 36 -24 9 -71 -1 -92 -18 -9 -7 -18 -6 -32 3 -34 23
-58 26 -86 8z"/>
<path d="M593 1760 c-57 -34 -67 -62 -71 -184 -2 -61 -8 -116 -13 -122 -5 -6
-44 -13 -87 -16 -145 -8 -176 -47 -170 -210 2 -89 6 -110 23 -128 36 -40 76
-50 209 -50 150 0 156 -3 156 -91 0 -71 18 -118 55 -148 27 -20 37 -21 174
-19 l146 3 0 30 0 30 -137 5 c-75 3 -140 9 -144 13 -5 4 -11 44 -15 88 -13
143 -40 163 -231 167 -170 5 -172 7 -166 128 4 94 15 104 105 104 137 0 166
34 173 202 4 91 9 121 20 128 8 5 72 10 141 10 141 0 146 -2 156 -67 3 -21 12
-50 20 -65 25 -51 55 -58 240 -58 222 0 213 6 213 -144 0 -122 -5 -136 -52
-136 -45 0 -93 -25 -119 -61 -21 -29 -24 -47 -29 -168 l-5 -136 -49 -5 c-51
-5 -74 -25 -63 -54 5 -12 20 -16 72 -16 106 0 125 32 125 203 0 131 11 157 63
157 46 0 97 31 119 71 14 27 18 56 18 150 0 104 -2 119 -23 150 -36 54 -55 59
-235 59 -197 0 -221 8 -222 75 0 42 -20 76 -59 102 -31 21 -45 23 -170 23
-117 0 -140 -3 -168 -20z"/>
<path d="M2386 1568 c-10 -32 -15 -159 -9 -240 l6 -88 124 0 124 0 -3 43 -3
42 -77 3 c-70 3 -78 5 -78 22 0 17 7 20 50 20 55 0 67 11 56 55 -6 22 -11 25
-56 25 -43 0 -50 3 -50 20 0 18 7 20 81 20 l80 0 -3 43 -3 42 -118 3 c-89 2
-118 0 -121 -10z"/>
<path d="M3977 1565 c-61 -31 -78 -78 -50 -134 14 -28 30 -39 78 -57 65 -24
78 -47 30 -52 -20 -2 -44 6 -69 23 -43 29 -54 25 -62 -26 -5 -32 -3 -36 35
-57 75 -43 181 -29 214 27 41 70 7 129 -92 164 -44 15 -50 21 -40 33 16 19 38
18 77 -6 49 -30 48 -31 69 43 3 13 -6 22 -39 37 -51 23 -112 25 -151 5z"/>
<path d="M5963 1572 l-113 -3 0 -39 c0 -40 0 -40 40 -40 l40 0 0 -125 0 -125
45 0 45 0 0 125 0 125 40 0 c40 0 40 0 40 39 0 23 -5 40 -12 42 -7 2 -64 3
-125 1z"/>
<path d="M6327 1574 c-4 -4 -7 -81 -7 -171 l0 -163 126 0 125 0 -3 43 -3 42
-77 3 c-70 3 -78 5 -78 22 0 17 7 20 50 20 l50 0 0 40 0 40 -50 0 c-43 0 -50
3 -50 20 0 17 8 19 78 22 l77 3 0 40 0 40 -116 3 c-63 1 -118 -1 -122 -4z"/>
<path d="M1910 1530 l0 -40 40 0 40 0 0 -125 0 -125 45 0 45 0 0 125 0 125 40
0 40 0 0 40 0 40 -125 0 -125 0 0 -40z"/>
<path d="M2860 1558 c0 -7 16 -42 35 -78 39 -72 39 -75 -11 -161 -19 -31 -34
-62 -34 -68 0 -6 20 -11 48 -11 46 0 49 2 65 36 17 35 36 41 45 14 3 -8 0 -10
-8 -5 -9 5 -11 4 -6 -4 4 -6 11 -9 16 -6 5 3 11 -4 15 -15 5 -16 15 -20 56
-20 33 0 49 4 49 13 0 6 -18 45 -40 85 l-40 74 35 66 c47 88 46 94 -12 90 -43
-3 -50 -6 -65 -37 l-17 -34 -17 37 c-17 34 -20 36 -66 36 -32 0 -48 -4 -48
-12z"/>
<path d="M3436 1467 c-21 -56 -46 -120 -56 -142 -37 -85 -37 -85 18 -85 42 0
50 3 60 25 10 22 18 25 66 25 49 0 54 -2 60 -25 6 -23 11 -25 57 -25 48 0 50
1 44 23 -6 17 -71 189 -112 295 -3 7 -24 12 -52 12 l-46 0 -39 -103z"/>
<path d="M4710 1558 c0 -10 77 -253 96 -302 5 -13 16 -16 48 -14 l41 3 20 73
c11 39 23 72 26 72 4 0 12 -22 18 -48 20 -95 26 -104 72 -100 l40 3 49 150
c28 83 50 156 50 163 0 8 -16 12 -45 12 -51 0 -56 -7 -76 -102 -6 -26 -14 -48
-18 -48 -4 0 -14 26 -21 58 -18 81 -25 92 -64 92 -43 0 -51 -10 -74 -99 l-19
-73 -23 86 -23 86 -48 0 c-31 0 -49 -4 -49 -12z"/>
<path d="M5450 1559 c0 -6 -6 -25 -14 -42 -39 -90 -103 -263 -99 -269 2 -5 23
-8 47 -8 36 0 45 4 54 25 10 22 18 25 66 25 49 0 54 -2 60 -25 6 -22 11 -25
56 -25 28 0 50 4 50 8 0 4 -15 46 -34 93 -18 46 -45 117 -60 157 l-28 72 -49
0 c-29 0 -49 -4 -49 -11z"/>
<path d="M6790 1405 l0 -165 45 0 45 0 0 50 c0 69 26 69 58 0 l22 -50 50 0
c28 0 50 5 50 10 0 6 -11 33 -25 60 l-25 49 25 25 c43 43 28 132 -29 170 -19
12 -49 16 -121 16 l-95 0 0 -165z"/>
<path d="M7260 1559 c0 -6 23 -80 51 -165 l50 -154 42 0 42 0 18 60 c9 32 17
66 17 75 0 36 17 9 35 -58 l20 -72 44 0 43 0 49 150 c27 83 49 156 49 163 0 9
-13 12 -47 10 l-47 -3 -19 -73 c-11 -40 -23 -70 -26 -66 -3 3 -15 35 -26 72
-19 64 -22 67 -53 70 -46 5 -58 -9 -77 -90 -20 -78 -23 -76 -50 25 l-17 67
-49 0 c-28 0 -49 -5 -49 -11z"/>
<path d="M7944 1410 c-34 -88 -59 -162 -56 -165 3 -3 24 -5 47 -5 35 0 44 4
53 25 10 22 18 25 66 25 49 0 54 -2 60 -25 6 -22 11 -25 56 -25 28 0 50 4 50
8 0 4 -27 77 -60 162 -33 85 -60 155 -60 157 0 2 -21 3 -47 3 l-48 0 -61 -160z"/>
<path d="M8380 1564 c0 -6 30 -60 79 -142 26 -45 31 -63 31 -117 l0 -65 45 0
45 0 0 61 c0 61 14 97 87 211 12 21 23 42 23 48 0 5 -20 10 -44 10 -43 0 -45
-2 -78 -55 l-34 -55 -29 55 c-30 55 -30 55 -77 55 -27 0 -48 -3 -48 -6z"/>
<path d="M1088 1409 c-27 -15 -22 -54 11 -82 26 -22 39 -25 108 -25 89 1 107
7 128 48 19 37 20 37 -11 57 -25 16 -27 16 -44 -8 l-19 -24 -24 23 c-20 19
-29 22 -45 13 -11 -6 -22 -16 -25 -23 -3 -9 -12 -6 -29 10 -28 25 -27 25 -50
11z"/>
<path d="M426 1294 c-23 -22 -20 -38 13 -73 30 -32 66 -40 101 -21 13 7 21 7
25 0 17 -28 93 -1 115 41 25 46 -18 84 -56 48 l-22 -21 -21 21 c-26 26 -35 26
-61 -1 l-20 -22 -20 22 c-25 26 -33 27 -54 6z"/>
<path d="M928 1299 c-12 -7 -18 -22 -18 -48 0 -45 19 -66 52 -56 19 6 17 1
-14 -32 -21 -21 -38 -46 -38 -55 0 -22 26 -41 48 -34 24 8 112 110 112 130 0
14 -104 106 -118 106 -4 0 -15 -5 -24 -11z"/>
<path d="M827 1129 c-24 -14 -21 -41 8 -99 l25 -50 101 0 c110 0 110 0 147 68
31 57 27 87 -13 87 -25 0 -33 -7 -51 -40 -20 -39 -22 -40 -77 -43 -57 -3 -58
-3 -72 32 -18 42 -43 58 -68 45z"/>
</g>
</svg>
