<?xml version="1.0" standalone="no"?>
<!DOCTYPE svg PUBLIC "-//W3C//DTD SVG 20010904//EN"
 "http://www.w3.org/TR/2001/REC-SVG-20010904/DTD/svg10.dtd">
<svg version="1.0" xmlns="http://www.w3.org/2000/svg"
 width="294.000000pt" height="318.000000pt" viewBox="0 0 294.000000 318.000000"
 preserveAspectRatio="xMidYMid meet">
<metadata>
</metadata>
<g transform="translate(0.000000,318.000000) scale(0.100000,-0.100000)"
fill="#000000" stroke="none">
<path d="M1793 2476 l-28 -24 35 -15 c51 -23 58 -29 75 -70 l15 -37 -55 6
c-68 8 -115 -8 -115 -41 0 -31 18 -43 65 -42 22 0 57 -7 78 -16 l37 -16 0
-133 c0 -142 5 -158 47 -158 35 0 43 30 43 169 l0 129 36 12 c20 7 53 10 74 6
30 -5 41 -2 56 15 21 24 12 45 -29 69 -20 11 -36 12 -76 4 -45 -9 -51 -9 -51
6 0 31 39 70 69 68 36 -3 51 8 51 37 0 58 -94 71 -142 20 -26 -28 -43 -32 -51
-12 -6 16 -67 47 -90 47 -9 0 -28 -11 -44 -24z"/>
<path d="M1244 2121 c-52 -13 -98 -47 -122 -89 -20 -36 -22 -54 -22 -179 0
-79 -5 -154 -11 -173 -16 -45 -58 -60 -166 -60 -183 -1 -233 -58 -233 -265 0
-123 11 -169 53 -213 44 -47 65 -52 244 -52 263 0 274 -6 283 -168 6 -120 20
-156 72 -194 32 -22 39 -23 237 -23 183 0 205 2 215 18 8 12 8 22 0 35 -10 15
-34 18 -195 22 -188 5 -218 11 -235 50 -4 8 -10 63 -13 121 -6 96 -9 110 -34
143 -53 69 -59 70 -285 76 l-204 5 -24 28 c-22 26 -24 36 -24 143 0 117 12
165 44 177 7 3 63 9 122 13 129 8 171 25 211 86 27 40 28 46 31 197 2 86 8
166 14 177 18 38 51 44 221 44 225 0 231 -3 252 -141 8 -53 44 -101 95 -126
42 -22 55 -23 283 -23 265 0 286 -4 306 -61 14 -40 14 -252 1 -301 -13 -47
-43 -68 -95 -68 -76 -1 -167 -63 -180 -123 -2 -12 -6 -99 -7 -192 -4 -214 -8
-225 -98 -225 -68 0 -94 -17 -81 -53 8 -20 15 -22 94 -22 76 0 88 3 111 24 49
46 56 76 56 250 0 216 15 251 107 251 72 1 149 51 172 113 6 16 11 99 11 188
0 206 -16 249 -105 290 -35 16 -69 19 -278 19 -257 0 -292 6 -301 53 -3 12
-10 47 -16 76 -12 62 -46 113 -93 138 -26 14 -63 18 -207 20 -96 1 -189 -2
-206 -6z"/>
<path d="M2050 1580 c-11 -11 -20 -24 -20 -30 0 -20 -40 -9 -56 15 -18 28 -55
33 -73 11 -18 -22 -3 -62 36 -97 32 -27 41 -30 77 -25 54 9 84 9 124 1 58 -13
132 39 132 92 0 46 -63 60 -82 18 -12 -28 -58 -36 -58 -11 0 14 -36 46 -52 46
-5 0 -17 -9 -28 -20z"/>
<path d="M1102 1433 c-7 -3 -17 -16 -22 -29 -12 -31 -43 -31 -64 1 -20 31 -61
33 -76 5 -13 -25 7 -69 47 -100 23 -18 35 -21 73 -15 55 8 76 8 118 -1 80 -16
171 81 117 126 -20 17 -62 5 -70 -20 -9 -28 -33 -25 -65 10 -28 30 -34 33 -58
23z"/>
<path d="M1672 1418 c-15 -15 -16 -82 -1 -110 9 -16 17 -19 44 -14 54 10 52
-11 -4 -68 -55 -55 -64 -88 -31 -106 27 -15 43 -5 123 79 50 52 68 77 65 93
-4 28 -133 138 -163 138 -11 0 -26 -5 -33 -12z"/>
<path d="M1855 1125 l-37 -65 -89 0 -89 0 -28 58 c-22 46 -32 58 -55 60 -20 3
-29 -2 -38 -20 -8 -19 -5 -35 19 -88 16 -36 36 -71 44 -78 12 -9 53 -12 154
-10 l139 3 45 86 c38 75 43 89 31 103 -29 35 -58 20 -96 -49z"/>
</g>
</svg>
