<?xml version="1.0" standalone="no"?>
<!DOCTYPE svg PUBLIC "-//W3C//DTD SVG 20010904//EN"
 "http://www.w3.org/TR/2001/REC-SVG-20010904/DTD/svg10.dtd">
<svg version="1.0" xmlns="http://www.w3.org/2000/svg"
 width="1986.000000pt" height="412.000000pt" viewBox="0 0 1986.000000 412.000000"
 preserveAspectRatio="xMidYMid meet">
<metadata>
Created by potrace 1.16, written by Peter Selinger 2001-2019
</metadata>
<g transform="translate(0.000000,412.000000) scale(0.100000,-0.100000)"
fill="#000000" stroke="none">
<path d="M1982 2310 c-18 -4 -35 -10 -38 -13 -26 -26 -39 -596 -18 -797 l9
-85 324 -3 c179 -1 328 1 331 5 8 9 -5 212 -14 220 -3 3 -84 9 -179 14 -203
10 -227 16 -227 58 0 41 17 48 130 53 106 5 148 20 157 56 7 31 -14 127 -32
142 -8 7 -61 14 -117 17 -115 6 -138 14 -138 46 1 51 5 52 224 55 l205 3 -4
47 c-3 26 -7 77 -10 113 l-6 66 -166 6 c-209 9 -388 7 -431 -3z"/>
<path d="M6251 2304 c-93 -25 -176 -86 -212 -156 -41 -81 -10 -220 65 -293 29
-28 68 -51 130 -74 109 -43 176 -84 176 -110 0 -24 -19 -31 -85 -31 -59 0 -96
13 -182 65 -99 60 -133 44 -151 -69 -13 -85 -2 -109 69 -151 90 -52 143 -68
255 -73 226 -10 362 82 380 256 5 46 2 68 -13 103 -43 95 -113 150 -276 214
-54 21 -102 44 -107 50 -7 8 -3 21 11 39 31 39 88 36 170 -9 147 -82 157 -80
189 21 25 81 25 116 3 136 -55 48 -217 98 -312 97 -31 0 -80 -7 -110 -15z"/>
<path d="M12499 2313 c-38 -3 -48 -8 -54 -26 -3 -12 -9 -214 -12 -449 l-6
-428 338 0 338 0 -7 112 c-4 62 -9 114 -11 117 -3 2 -83 7 -178 12 -175 8
-226 18 -228 41 -6 59 15 68 148 68 l113 0 0 110 0 110 -117 0 c-65 0 -123 4
-129 8 -17 11 -22 35 -13 59 10 27 38 31 249 41 l155 7 3 106 3 106 -167 6
c-167 7 -338 7 -425 0z"/>
<path d="M677 2293 c-4 -3 -7 -53 -7 -110 l0 -103 110 0 110 0 0 -335 0 -336
118 3 117 3 3 333 2 332 105 0 105 0 0 110 0 110 -328 0 c-181 0 -332 -3 -335
-7z"/>
<path d="M3285 2294 c-66 -10 -75 -14 -75 -37 0 -13 36 -94 80 -182 113 -224
116 -194 -69 -535 -22 -41 -41 -83 -41 -92 0 -23 36 -32 130 -32 101 -1 131
13 165 77 49 92 78 113 109 81 23 -22 20 -43 -4 -37 -11 3 -20 1 -20 -5 0 -14
18 -25 42 -26 11 -1 32 -19 47 -41 23 -33 34 -41 71 -47 59 -9 175 1 197 17
16 12 12 23 -49 146 -37 74 -86 169 -109 211 l-43 78 94 184 c88 171 93 186
82 211 l-13 27 -92 -4 c-124 -6 -143 -16 -192 -109 l-40 -76 -34 73 c-46 99
-61 112 -141 118 -36 2 -78 2 -95 0z"/>
<path d="M4839 2273 c-6 -16 -50 -131 -99 -258 -48 -126 -114 -295 -147 -375
-72 -173 -78 -194 -58 -210 19 -16 127 -23 185 -13 39 7 49 15 77 58 18 27 40
53 49 58 27 15 185 21 231 8 37 -10 44 -16 55 -52 6 -23 21 -47 33 -55 28 -18
121 -28 189 -20 53 7 56 9 56 36 0 28 -291 805 -308 822 -12 12 -121 28 -195
28 -54 0 -58 -2 -68 -27z"/>
<path d="M8201 2291 c-24 -3 -48 -13 -54 -21 -11 -18 26 -146 160 -555 56
-172 91 -266 105 -277 16 -14 38 -18 102 -18 91 0 126 7 126 24 0 18 79 291
96 332 15 35 17 37 29 20 8 -10 26 -68 40 -130 55 -236 63 -246 189 -246 51 0
88 5 98 13 15 11 161 440 243 712 42 139 42 139 -58 149 -65 6 -127 -4 -152
-24 -20 -17 -49 -99 -75 -215 -21 -92 -43 -155 -56 -155 -8 0 -25 52 -59 182
-52 196 -65 212 -171 212 -112 0 -128 -24 -198 -286 -27 -102 -45 -155 -49
-143 -5 17 -69 251 -106 393 l-12 42 -77 -2 c-42 0 -97 -4 -121 -7z"/>
<path d="M10166 2291 c-21 -3 -42 -13 -46 -21 -23 -45 -216 -548 -261 -678
-40 -119 -49 -156 -39 -162 19 -12 141 -20 185 -12 33 6 45 15 72 57 18 27 40
53 49 58 27 15 185 21 231 8 37 -10 44 -16 55 -52 6 -23 21 -47 32 -54 28 -18
128 -27 196 -17 51 7 55 9 53 33 -1 27 -299 815 -316 837 -10 13 -136 15 -211
3z"/>
<path d="M11218 2293 l-38 -4 0 -89 c0 -116 4 -120 121 -120 l89 0 0 -335 0
-335 120 0 120 0 0 334 0 334 99 4 c55 1 103 7 108 11 13 14 9 159 -5 185
l-13 22 -282 -2 c-155 -1 -299 -3 -319 -5z"/>
<path d="M13690 1855 l0 -446 118 3 117 3 6 115 c7 128 12 150 41 150 31 0 67
-48 122 -164 l51 -109 112 6 c122 7 156 17 147 45 -3 9 -33 74 -66 144 l-61
127 48 53 c61 68 78 108 78 188 -1 120 -59 233 -148 286 -52 30 -182 44 -417
44 l-148 0 0 -445z"/>
<path d="M15025 2295 c-5 -2 -27 -6 -47 -10 -27 -4 -38 -11 -38 -23 0 -16 66
-227 208 -667 l58 -180 114 0 114 0 37 125 c20 69 43 158 50 198 7 39 17 72
21 72 13 0 41 -72 72 -180 15 -52 34 -119 42 -147 l15 -53 118 0 117 0 92 283
c51 155 110 343 132 417 49 162 50 160 -76 160 -140 0 -136 3 -163 -103 -29
-115 -68 -237 -81 -257 -9 -13 -11 -13 -20 0 -6 8 -31 79 -56 158 -57 180 -69
194 -159 200 -44 3 -75 0 -92 -9 -33 -17 -65 -83 -92 -189 -35 -135 -52 -180
-66 -180 -16 0 -42 76 -88 255 l-34 130 -84 2 c-46 1 -88 0 -94 -2z"/>
<path d="M16927 2293 c-3 -5 -55 -141 -117 -303 -121 -319 -202 -549 -195
-561 7 -11 146 -19 190 -11 33 6 45 15 72 57 18 27 40 53 49 58 27 15 185 21
231 8 37 -10 44 -16 55 -52 18 -63 44 -74 166 -73 61 1 107 5 114 12 13 13 -4
63 -182 524 l-128 333 -39 7 c-52 9 -211 10 -216 1z"/>
<path d="M17985 2293 c-22 -2 -44 -8 -49 -13 -11 -10 26 -82 147 -290 128
-218 129 -223 135 -417 l4 -163 118 0 117 0 5 143 c7 201 29 257 216 563 34
55 65 115 68 132 6 28 3 32 -22 39 -16 4 -62 7 -102 7 -56 -1 -79 -5 -100 -20
-25 -19 -89 -110 -155 -220 l-29 -48 -27 50 c-15 27 -48 84 -72 128 -24 43
-54 85 -65 93 -23 15 -125 24 -189 16z"/>
</g>
</svg>
